<svg xmlns="http://www.w3.org/2000/svg" viewBox="0 0 800 500" width="800" height="500">
  <defs>
    <radialGradient id="glow1" cx="20%" cy="30%" r="50%">
      <stop offset="0%" stop-color="#6366f1" stop-opacity="0.12"/>
      <stop offset="100%" stop-color="#6366f1" stop-opacity="0"/>
    </radialGradient>
    <radialGradient id="glow2" cx="80%" cy="70%" r="40%">
      <stop offset="0%" stop-color="#60a5fa" stop-opacity="0.08"/>
      <stop offset="100%" stop-color="#60a5fa" stop-opacity="0"/>
    </radialGradient>
  </defs>
  <rect width="800" height="500" fill="#0b1022"/>
  <rect width="800" height="500" fill="url(#glow1)"/>
  <rect width="800" height="500" fill="url(#glow2)"/>
  <g opacity="0.03" stroke="#6366f1" stroke-width="0.4" fill="none">
    <line x1="120" y1="60" x2="340" y2="200"/>
    <line x1="340" y1="200" x2="500" y2="90"/>
    <line x1="500" y1="90" x2="680" y2="220"/>
    <line x1="120" y1="60" x2="200" y2="280"/>
    <line x1="340" y1="200" x2="420" y2="360"/>
    <line x1="500" y1="90" x2="580" y2="310"/>
    <line x1="680" y1="220" x2="750" y2="380"/>
  </g>
  <g opacity="0.06" fill="#6366f1">
    <circle cx="120" cy="60" r="3"/>
    <circle cx="340" cy="200" r="2.5"/>
    <circle cx="500" cy="90" r="3"/>
    <circle cx="680" cy="220" r="2"/>
    <circle cx="200" cy="280" r="2.5"/>
    <circle cx="420" cy="360" r="2"/>
  </g>
</svg>
